<svg xmlns="http://www.w3.org/2000/svg" width="400pt" height="400pt" viewBox="0 0 141.111 141.111"><g opacity=".98"><path d="M98.164 1.765c-7.624 0-13.745 6.18-13.804 13.804l-.488 62.615c-.18 22.97-12.814 30.336-21.544 34.042a13.804 13.804 0 0 0-10.178 13.316c0 6.902 6.18 13.804 13.804 13.804 23.007-.92 46.014-28.989 46.014-61.198V15.569c0-7.623-6.18-13.804-13.804-13.804z" fill="#ff9800"/><path d="M42.947 4.066A13.804 13.804 0 0 0 29.143 17.87v27.38c0 21.855 17.255 41.64 41.413 41.64 18.422 0 31.667-11.525 37.723-24.148a13.804 13.804 0 0 0 1.717-6.662 13.804 13.804 0 0 0-13.804-13.804 13.804 13.804 0 0 0-12.944 9.056c-5.15 12.281-26.496 10.331-26.496-5.854V17.87A13.804 13.804 0 0 0 42.947 4.066z" fill="#283149"/></g></svg>