<svg xmlns="http://www.w3.org/2000/svg" width="1000" height="340" viewBox="0 0 264.583 89.958"><path style="line-height:1.25;-inkscape-font-specification:'Nunito Ultra-Bold'" d="M155.715 59.193q-.354 0-.547-.192-.193-.193-.193-.548v-5.666q0-.355.193-.547.193-.193.547-.193h2.038q1.166 0 2.007.426.841.426 1.287 1.226.446.801.446 1.916 0 1.115-.446 1.926-.436.8-1.277 1.227-.841.425-2.017.425zm1.926-1.277q2.281 0 2.281-2.3 0-2.292-2.28-2.292h-1.085v4.592zm9.761 1.277q-.355 0-.547-.192-.193-.193-.193-.548v-5.666q0-.355.193-.547.192-.193.547-.193h3.589q.75 0 .75.608 0 .619-.75.619h-2.788v1.672h2.585q.75 0 .75.618 0 .609-.75.609h-2.585v1.794h2.788q.75 0 .75.618 0 .608-.75.608zm11.7.092q-.8 0-1.49-.183-.69-.192-1.125-.537-.152-.112-.223-.233-.06-.132-.06-.325 0-.253.151-.446.162-.192.365-.192.112 0 .213.04.111.03.264.122.435.274.881.405.446.122.984.122.669 0 1.023-.223.355-.223.355-.639 0-.314-.334-.506-.325-.193-1.166-.365-.943-.193-1.51-.467-.558-.273-.821-.679-.254-.405-.254-.983 0-.639.365-1.145.375-.517 1.024-.801.659-.294 1.48-.294 1.44 0 2.372.72.152.121.213.253.07.122.07.304 0 .253-.162.446-.152.193-.354.193-.112 0-.213-.03-.091-.031-.264-.133-.415-.263-.77-.395-.345-.132-.882-.132-.618 0-.973.244-.355.233-.355.648 0 .244.132.406.142.152.456.274.324.121.912.253 1.379.304 1.977.78.608.477.608 1.308 0 .649-.365 1.146-.355.496-1.013.77-.65.274-1.51.274zm8.755-.031q-.365 0-.578-.213-.213-.213-.213-.577v-5.687q0-.355.213-.568.213-.213.578-.213t.577.213q.213.213.213.568v5.687q0 .364-.213.577-.212.213-.577.213zm11.688-4.004q.284 0 .446.162.173.152.173.426v1.977q0 .405-.071.628-.061.223-.223.355-.162.132-.487.223-.395.122-.912.193-.507.07-.963.07-1.135 0-1.967-.435-.83-.446-1.277-1.267-.446-.832-.446-1.967 0-1.115.436-1.936.446-.831 1.267-1.277.821-.446 1.916-.446 1.409 0 2.331.73.152.121.213.243t.061.304q0 .264-.152.456-.142.183-.345.183-.131 0-.243-.04-.101-.041-.253-.133-.426-.263-.78-.375-.356-.111-.781-.111-2.068 0-2.068 2.402 0 1.237.537 1.845.537.608 1.622.608.588 0 1.166-.152v-1.571h-.933q-.294 0-.456-.142-.162-.142-.162-.405 0-.264.162-.406.162-.142.456-.142zm11.359-3.254q.334 0 .537.223.213.213.213.558v5.687q0 .354-.213.577-.203.213-.537.213-.365 0-.588-.263l-3.396-4.349v3.822q0 .354-.203.577-.192.213-.527.213-.334 0-.537-.213-.203-.223-.203-.577v-5.687q0-.345.203-.558.213-.223.547-.223.375 0 .578.264l3.396 4.318v-3.801q0-.345.203-.558.202-.223.527-.223zm6.854 7.197q-.355 0-.547-.192-.193-.193-.193-.548v-5.666q0-.355.193-.547.192-.193.547-.193h3.589q.75 0 .75.608 0 .619-.75.619h-2.788v1.672h2.585q.75 0 .75.618 0 .609-.75.609h-2.585v1.794h2.788q.75 0 .75.618 0 .608-.75.608zm15.083-1.003q.153.223.153.436 0 .284-.234.466-.223.182-.527.182-.192 0-.375-.09-.182-.092-.304-.285l-1.338-1.986q-.172-.264-.365-.375-.192-.122-.486-.122h-.821v2.048q0 .364-.213.577-.203.213-.558.213-.365 0-.578-.213-.212-.213-.212-.577v-5.677q0-.355.192-.547.193-.193.547-.193h2.545q1.257 0 1.895.558.65.547.65 1.591 0 .821-.457 1.368-.456.548-1.287.72.304.061.537.243.243.173.466.507zm-2.807-2.97q.679 0 .983-.233.304-.244.304-.75 0-.517-.304-.75-.304-.234-.983-.234h-1.51v1.967z" font-weight="800" font-size="10.137" font-family="Nunito" letter-spacing="3.946" word-spacing="0" fill="#ff9a03" fill-opacity=".996"/><path d="M142.712 30.674a2.877 2.877 0 0 0-2.87 2.87l-.102 13.022c-.037 4.776-2.665 6.308-4.48 7.079a2.87 2.87 0 0 0-2.117 2.769c0 1.435 1.285 2.87 2.87 2.87 4.785-.19 9.57-6.028 9.57-12.726V33.544a2.87 2.87 0 0 0-2.871-2.87z" fill="#ff9800" fill-opacity=".984"/><path d="M131.23 31.152a2.87 2.87 0 0 0-2.871 2.87v5.695c0 4.545 3.588 8.66 8.612 8.66 3.83 0 6.585-2.398 7.845-5.023a2.87 2.87 0 0 0 .357-1.385 2.87 2.87 0 0 0-2.871-2.87 2.87 2.87 0 0 0-2.692 1.883c-1.07 2.553-5.51 2.148-5.51-1.218v-5.741a2.87 2.87 0 0 0-2.87-2.87z" fill="#263238" fill-opacity=".988"/><path style="line-height:1.25;-inkscape-font-specification:'Nunito Heavy'" d="M163.27 47.66q-2.538 0-4.418-1.033-1.856-1.057-2.866-2.96-1.01-1.927-1.01-4.512 0-2.584 1.01-4.487 1.01-1.927 2.866-2.96 1.88-1.034 4.417-1.034 2.538 0 4.394 1.033 1.88 1.034 2.866 2.96 1.01 1.904 1.01 4.488 0 2.585-1.01 4.511-1.01 1.904-2.89 2.96-1.856 1.035-4.37 1.035zm0-3.312q1.879 0 2.936-1.316 1.057-1.34 1.057-3.877t-1.08-3.853q-1.058-1.315-2.914-1.315-1.88 0-2.937 1.315-1.057 1.292-1.057 3.853t1.057 3.877q1.058 1.316 2.937 1.316zm30.838.352q.423.635.423 1.198 0 .752-.635 1.27-.61.493-1.433.493-.564 0-1.057-.259-.494-.258-.846-.775l-3.054-4.464q-.33-.47-.705-.682-.353-.235-.846-.235h-1.527v4.206q0 .987-.564 1.574-.564.564-1.55.564-.988 0-1.575-.564-.564-.587-.564-1.574v-12.57q0-.963.517-1.48t1.48-.517h5.897q3.008 0 4.511 1.316 1.528 1.292 1.528 3.76 0 1.879-1.034 3.194-1.034 1.293-2.914 1.739.776.118 1.34.517.587.4 1.15 1.198zm-6.72-6.696q1.433 0 2.044-.446.634-.447.634-1.457 0-1.034-.634-1.48-.61-.47-2.044-.47h-3.007v3.853zm30.161-7.236q.893 0 1.456.587.564.587.564 1.527v12.782q0 .892-.517 1.41-.516.516-1.362.516-.823 0-1.363-.517-.517-.517-.517-1.41v-6.907l-2.678 4.934q-.4.752-.846 1.08-.446.306-1.057.306t-1.058-.305q-.446-.33-.845-1.081l-2.655-4.793v6.767q0 .869-.54 1.41-.518.516-1.363.516-.823 0-1.363-.517-.517-.517-.517-1.41v-12.78q0-.94.564-1.528.587-.587 1.48-.587.634 0 1.151.376.517.352.87 1.033l4.323 8.13 4.3-8.13q.728-1.41 1.973-1.41zm13.262 16.822q-.987 0-1.574-.564-.564-.587-.564-1.574v-12.57q0-.963.564-1.527.587-.587 1.574-.587 1.01 0 1.598.587.587.564.587 1.527v12.57q0 .987-.587 1.574-.588.564-1.598.564z" font-weight="900" font-size="23.495" font-family="Nunito" letter-spacing="6.054" word-spacing="0" fill="#263238" fill-opacity=".988"/><path d="M36.4 31.152a2.18 2.18 0 0 0 .354 3.068 2.18 2.18 0 0 0 3.07-.354l7.74-9.764a2.18 2.18 0 0 0-.354-3.068 2.18 2.18 0 0 0-3.069.354zm-4.338 19.534a2.18 2.18 0 0 0 .354 3.069 2.18 2.18 0 0 0 3.07-.355l4.63-5.84a2.18 2.18 0 0 0-.355-3.069 2.18 2.18 0 0 0-3.069.355zm8.19-10.33a2.18 2.18 0 0 0 .355 3.068 2.18 2.18 0 0 0 3.07-.354l.217-.275 1.802-2.273a2.18 2.18 0 0 1 3.069-.355 2.18 2.18 0 0 1 .354 3.069L47.007 45.9l-2.731 3.445-7.088 8.94a2.18 2.18 0 0 0 .354 3.068A2.18 2.18 0 0 0 40.611 61l5.005-6.313 3.557-4.486a2.18 2.18 0 0 1 3.069-.355 2.18 2.18 0 0 1 .354 3.069l-1.363 1.72-3.699 4.665-1.952 2.462a2.18 2.18 0 0 0 .355 3.068 2.18 2.18 0 0 0 3.068-.354l.953-1.202 2.271-2.864a2.18 2.18 0 0 1 3.069-.355 2.18 2.18 0 0 1 .354 3.069l-2.893 3.649-5.338 6.733a2.18 2.18 0 0 0 .355 3.068 2.18 2.18 0 0 0 3.068-.354l5.098-6.43.391-.493a2.18 2.18 0 0 1 3.069-.354 2.18 2.18 0 0 1 .354 3.068l-.253.32-2.002 2.525a2.18 2.18 0 0 0 .355 3.068 2.18 2.18 0 0 0 3.068-.354l2.513-3.169 5.255-6.629a2.18 2.18 0 0 1 3.07-.354 2.18 2.18 0 0 1 .354 3.069l-4.36 5.498-.019.024a2.18 2.18 0 0 0 .372 3.045 2.18 2.18 0 0 0 3.069-.354l1.335-1.685 4.382-5.525 2.948-3.718a2.18 2.18 0 0 1 3.068-.355 2.18 2.18 0 0 1 .355 3.069l-5.437 6.857-1.025 1.293a2.18 2.18 0 0 0 .354 3.07 2.18 2.18 0 0 0 3.069-.355l3.763-4.747 2.7-3.404 2.01-2.54a2.18 2.18 0 0 1 3.07-.354 2.18 2.18 0 0 1 .354 3.068l-.492.62a33.25 33.25 0 0 0 .013-.006 2.177 2.177 0 0 0 .43 2.963 2.18 2.18 0 0 0 3.07-.354l19.326-24.376a2.18 2.18 0 0 0-.354-3.069 2.18 2.18 0 0 0-3.07.355l-1.574 1.986-3.339 4.211a2.18 2.18 0 0 1-3.068.354 2.18 2.18 0 0 1-.355-3.068l5.1-6.433 2.482-3.13 2.432-3.068a2.18 2.18 0 0 0-.354-3.068 2.18 2.18 0 0 0-2.761.037 33.25 33.25 0 0 0-.01-.059l-.298.376-4.914 6.198a2.18 2.18 0 0 1-3.069.354 2.18 2.18 0 0 1-.354-3.069l2.948-3.718 4.151-5.236 3.617-4.561a2.18 2.18 0 0 0-.354-3.07 2.18 2.18 0 0 0-3.07.355l-2.266 2.86-1.133 1.429a2.18 2.18 0 0 1-3.069.354 2.18 2.18 0 0 1-.355-3.068l2.008-2.532 2.75-3.468a2.18 2.18 0 0 0-.355-3.069 2.18 2.18 0 0 0-3.069.355l-2.242 2.827-1.324 1.67a2.18 2.18 0 0 1-3.068.355 2.18 2.18 0 0 1-.355-3.069l1.453-1.833 2.104-2.652a2.18 2.18 0 0 0-.355-3.07 2.18 2.18 0 0 0-3.069.355l-2.34 2.952-2.648 3.34a2.18 2.18 0 0 1-3.069.355 2.18 2.18 0 0 1-.354-3.07l2.05-2.584 1.927-2.432a2.18 2.18 0 0 0-.354-3.069 2.18 2.18 0 0 0-3.069.355l-2.95 3.721-4.818 6.076-1.123 1.417a2.18 2.18 0 0 1-3.069.354 2.18 2.18 0 0 1-.354-3.068l4.478-5.648 1.044-1.317a2.18 2.18 0 0 0-.355-3.068 2.18 2.18 0 0 0-3.069.354l-3.167 3.995-4.6 5.803-1.324 1.669a2.18 2.18 0 0 1-3.07.355 2.18 2.18 0 0 1-.354-3.07l3.115-3.928a2.18 2.18 0 0 0-.354-3.069 2.18 2.18 0 0 0-3.069.355zm28.21-35.578a2.18 2.18 0 0 0 .354 3.068 2.18 2.18 0 0 0 3.069-.354l.329-.415a2.18 2.18 0 0 0-.355-3.069 2.18 2.18 0 0 0-3.068.355zm-28.1 63.567a2.18 2.18 0 0 0 .355 3.068 2.18 2.18 0 0 0 3.068-.354l1.084-1.367a2.18 2.18 0 0 0-.354-3.07 2.18 2.18 0 0 0-3.069.355zM62.288 82.88a2.18 2.18 0 0 0 .355 3.07 2.18 2.18 0 0 0 3.068-.355l1.018-1.284a2.18 2.18 0 0 0-.354-3.069 2.18 2.18 0 0 0-3.07.355zm51.134-50.428a2.18 2.18 0 0 0 .355 3.068 2.18 2.18 0 0 0 3.068-.354l.655-.826a2.18 2.18 0 0 0-.354-3.07 2.18 2.18 0 0 0-3.069.355zM86.342 80.67a2.18 2.18 0 0 0 .354 3.069 2.18 2.18 0 0 0 3.069-.355l1.123-1.416a2.18 2.18 0 0 0-.355-3.069 2.18 2.18 0 0 0-3.069.355zm28.854-36.392a2.18 2.18 0 0 0 .354 3.069 2.18 2.18 0 0 0 3.069-.355l1.123-1.416a2.18 2.18 0 0 0-.354-3.069 2.18 2.18 0 0 0-3.07.355zm-2.447 17.15a2.18 2.18 0 0 0 .354 3.069 2.18 2.18 0 0 0 3.069-.355l5.522-6.964a2.18 2.18 0 0 0-.355-3.07 2.18 2.18 0 0 0-3.069.355z" fill="#e6e6e6"/><path d="M85.313 23.962c-2.33 0-4.2 1.888-4.218 4.217l-.149 19.131c-.054 7.018-3.915 9.269-6.582 10.4a4.218 4.218 0 0 0-3.11 4.07c0 2.108 1.889 4.217 4.218 4.217 7.03-.281 14.058-8.857 14.058-18.698v-19.12a4.218 4.218 0 0 0-4.217-4.217z" fill="#ff9800"/><path d="M68.443 24.664a4.218 4.218 0 0 0-4.218 4.218v8.366c0 6.677 5.272 12.722 12.653 12.722 5.628 0 9.675-3.521 11.526-7.378a4.218 4.218 0 0 0 .524-2.036 4.218 4.218 0 0 0-4.218-4.217 4.218 4.218 0 0 0-3.954 2.767c-1.574 3.752-8.096 3.156-8.096-1.789v-8.435a4.218 4.218 0 0 0-4.217-4.218z" fill="#263238" fill-opacity=".988"/></svg>